<?xml version="1.0" encoding="utf-8"?>
<!-- Generator: Adobe Illustrator 22.0.0, SVG Export Plug-In . SVG Version: 6.00 Build 0)  -->
<svg version="1.1" id="Layer_1" xmlns="http://www.w3.org/2000/svg" xmlns:xlink="http://www.w3.org/1999/xlink" x="0px" y="0px"
	 viewBox="0 0 512 512" style="enable-background:new 0 0 512 512;" xml:space="preserve">
<style type="text/css">
	.st0{fill:#FFFFFF;}
	.st1{fill:#00FFFF;}
	.st2{fill:#8690A6;}
	.st3{fill:#B5BCC9;}
	.st4{fill:#F9F9F9;}
</style>
<g>
	<path class="st0" d="M256,503c-66,0-128-25.7-174.7-72.3S9,322,9,256c0-66,25.7-128,72.3-174.7S190,9,256,9
		c66,0,128,25.7,174.7,72.3S503,190,503,256c0,66-25.7,128-72.3,174.7S322,503,256,503z"/>
	<path class="st1" d="M256,18c32.1,0,63.3,6.3,92.6,18.7c28.3,12,53.8,29.1,75.7,51s39,47.3,51,75.7c12.4,29.3,18.7,60.5,18.7,92.6
		s-6.3,63.3-18.7,92.6c-12,28.3-29.1,53.8-51,75.7s-47.3,39-75.7,51C319.3,487.7,288.1,494,256,494s-63.3-6.3-92.6-18.7
		c-28.3-12-53.8-29.1-75.7-51s-39-47.3-51-75.7C24.3,319.3,18,288.1,18,256s6.3-63.3,18.7-92.6c12-28.3,29.1-53.8,51-75.7
		s47.3-39,75.7-51C192.7,24.3,223.9,18,256,18 M256,0C114.6,0,0,114.6,0,256s114.6,256,256,256s256-114.6,256-256S397.4,0,256,0
		L256,0z"/>
</g>
<g id="XMLID_1014_">
	<g id="XMLID_1015_">
		<path id="XMLID_508_" class="st1" d="M374.8,306.7L256,453.9L137.2,306.7c-49-60.7-44.3-148.6,10.9-203.8
			c59.6-59.6,156.3-59.6,215.9,0C419.2,158,423.8,245.9,374.8,306.7L374.8,306.7z"/>
	</g>
	<g id="XMLID_2894_">
		<g id="XMLID_2441_">
			<path class="st2" d="M326.9,291.2H185.4c-8.9,0-16.1-7.2-16.1-16.1v-80.4h173.6v80.4C342.9,284,335.7,291.2,326.9,291.2z"/>
		</g>
		<g id="XMLID_2438_">
			<path id="XMLID_506_" class="st3" d="M169.3,160.9h173.6v33.8H169.3L169.3,160.9z"/>
		</g>
		<g id="XMLID_1585_">
			<path id="XMLID_468_" class="st4" d="M274.7,163l31.2,31.2h-68.3L206.4,163H274.7z"/>
		</g>
		<g id="XMLID_1668_">
			<path id="XMLID_466_" class="st3" d="M342.9,160.9H169.3v-17.7c0-8.9,7.2-16.1,16.1-16.1h141.5c8.9,0,16.1,7.2,16.1,16.1V160.9z"
				/>
		</g>
		<g id="XMLID_1635_">
			<path id="XMLID_153_" class="st4" d="M274.7,158.9l31.2-31.2h-68.3l-31.2,31.2H274.7z"/>
		</g>
	</g>
	<g id="XMLID_510_">
		<path id="XMLID_512_" d="M393.2,127.1c-2.3-3.8-7.3-5-11.1-2.7c-3.8,2.3-5,7.3-2.7,11.1c31.7,52,27.3,118.7-10.9,166.2L256,441.1
			L143.5,301.6c-46.5-57.7-42.1-140.7,10.3-193.1c47.4-47.4,120.4-56.2,177.6-21.2c3.8,2.3,8.7,1.1,11.1-2.7
			c2.3-3.8,1.1-8.7-2.7-11.1c-30.2-18.5-66.4-26.5-101.8-22.5c-36.5,4.1-69.5,20-95.6,46.1c-28.1,28.1-44.7,65.4-46.8,105.1
			c-2.1,39.7,10.5,78.6,35.4,109.5l108.2,134.1h-81.3c-4.4,0-8,3.6-8,8c0,4.4,3.6,8,8,8h196.3c4.4,0,8-3.6,8-8c0-4.4-3.6-8-8-8
			h-81.3l108.2-134.1C423.6,259,428.5,184.8,393.2,127.1L393.2,127.1z"/>
		<path id="XMLID_551_" d="M185.4,119.1c-13.3,0-24.1,10.8-24.1,24.1v131.9c0,13.3,10.8,24.1,24.1,24.1h141.5
			c13.3,0,24.1-10.8,24.1-24.1V143.2c0-13.3-10.8-24.1-24.1-24.1H185.4z M334.9,186.6h-25.2L292,169h42.9V186.6z M177.4,169H201
			l17.7,17.7h-41.3V169z M269.3,169l17.7,17.7h-45.5L223.7,169H269.3z M223.7,152.9l17.7-17.7H287l-17.7,17.7H223.7z M177.4,143.2
			c0-4.4,3.6-8,8-8h33.3L201,152.9h-23.6L177.4,143.2z M326.9,283.2H185.4c-4.4,0-8-3.6-8-8v-72.4h157.5v72.4
			C334.9,279.6,331.3,283.2,326.9,283.2z M334.9,143.2v9.7H292l17.7-17.7h17.1C331.3,135.2,334.9,138.8,334.9,143.2z"/>
		<path id="XMLID_655_" d="M289.5,234.9h-66.8c-4.4,0-8,3.6-8,8s3.6,8,8,8h66.8c4.4,0,8-3.6,8-8S294,234.9,289.5,234.9z"/>
		<path id="XMLID_656_" d="M364,110.9c2.1,0,4.2-0.9,5.7-2.4c1.5-1.5,2.4-3.6,2.4-5.7c0-2.1-0.9-4.2-2.4-5.7
			c-1.5-1.5-3.6-2.4-5.7-2.4c-2.1,0-4.2,0.9-5.7,2.4c-1.5,1.5-2.3,3.6-2.3,5.7s0.9,4.2,2.3,5.7C359.8,110,361.9,110.9,364,110.9z"/>
	</g>
</g>
</svg>
