<?xml version="1.0" encoding="utf-8"?>
<!-- Generator: Adobe Illustrator 22.0.0, SVG Export Plug-In . SVG Version: 6.00 Build 0)  -->
<svg version="1.1" id="Capa_1" xmlns="http://www.w3.org/2000/svg" xmlns:xlink="http://www.w3.org/1999/xlink" x="0px" y="0px"
	 viewBox="0 0 156 300" style="enable-background:new 0 0 156 300;" xml:space="preserve">
<style type="text/css">
	.st0{opacity:0.5;}
	.st1{fill:#DD2129;}
	.st2{fill:#FFFFFF;}
	.st3{fill:#E94A44;}
	.st4{fill:#CA2427;}
	.st5{fill:#F7D0B1;}
	.st6{fill:#1EB8D1;}
</style>
<g class="st0">
	<g>
		<g>
			<g>
				<g>
					<path class="st1" d="M144.4,69.2c-6.8,28.2-76.8,90.2-76.8,90.2S33.7,72.3,40.5,44.1S76.1-1.4,104.8,5.5
						C133.5,12.5,151.2,41,144.4,69.2z"/>
				</g>
				<g>
					
						<ellipse transform="matrix(0.2351 -0.972 0.972 0.2351 18.2568 131.9885)" class="st2" cx="93" cy="54.4" rx="24.7" ry="25.1"/>
				</g>
			</g>
			<g>
				<path class="st3" d="M48.3,50.7c5.9-24.5,30.9-39.5,55.9-33.5c14.6,3.5,25.9,13.5,31.6,26c-4.6-15.2-17-27.7-33.7-31.7
					c-24.9-6-49.9,9-55.9,33.5C43.7,55.2,45,65.4,49,74.3C46.7,66.9,46.4,58.8,48.3,50.7z"/>
			</g>
			<g>
				<path class="st4" d="M59.5,137.3c4.3,13.4,8.1,22.1,8.1,22.1s70-61.9,76.8-90.2c0.4-1.5,0.6-3,0.9-4.4
					c-3.9,7.3-8.7,14.3-14,20.7c-14.7,17.8-32.4,27.2-51.8,39.8C73.2,129.3,66.2,133.7,59.5,137.3z"/>
			</g>
		</g>
	</g>
	<g>
		<g>
			<path class="st5" d="M66.2,233.4c0.3-5.8,5.6-68.8,7-70.8c1.9-2.7,14.9-16.6,16-17.4l-0.6-5.8l-21.1,19.7l-7.4-20.4l7.5-7.7
				l-2.8-4.1l-13.1,1.4l-1.8,5.2l0.6,7.4c1.2,2.6,7,14.5,7,14.5l-22.6,72.9C34.9,228.3,66.2,233.4,66.2,233.4z"/>
		</g>
	</g>
	<g>
		<g>
			<polygon class="st6" points="6,300 42,171.1 77.9,190.5 68.1,300 			"/>
		</g>
	</g>
	<g>
		<polygon class="st5" points="89.3,145.2 88.5,135.5 74.8,127 66.6,139.2 72.4,154.7 76.1,159.2 		"/>
	</g>
</g>
</svg>
