<svg xmlns="http://www.w3.org/2000/svg" viewBox="0 0 206.82 78.16"><defs><style>.cls-1{fill:#1eb8d1;}.cls-2{fill:#dd2129;}.cls-3{fill:#fff;}.cls-4{fill:#e94a44;}.cls-5{fill:#ca2427;}.cls-6{fill:#f7d0b1;}</style></defs><title>loofilm_logo</title><g id="Capa_2" data-name="Capa 2"><g id="Capa_1-2" data-name="Capa 1"><path class="cls-1" d="M45.06,71.66v2.55h3.67v.9H45.06v3H44V70.75h5.17v.91Z"/><path class="cls-1" d="M52.75,70.75h1v7.32h-1Z"/><path class="cls-1" d="M58.09,70.75h1v6.41h4v.91h-5Z"/><path class="cls-1" d="M73.2,78.07V72.74l-2.65,4.44h-.48l-2.65-4.41v5.3h-1V70.75h.86l3.06,5.15,3-5.15h.85v7.32Z"/><path class="cls-1" d="M83.41,70.75h1v6.41h4v.91h-5Z"/><path class="cls-1" d="M92.89,77.67a3.51,3.51,0,0,1-1.39-1.34,3.87,3.87,0,0,1,0-3.84,3.51,3.51,0,0,1,1.39-1.34,4.06,4.06,0,0,1,2-.49,4,4,0,0,1,2,.49,3.45,3.45,0,0,1,1.39,1.34,3.87,3.87,0,0,1,0,3.84,3.45,3.45,0,0,1-1.39,1.34,4,4,0,0,1-2,.49A4.06,4.06,0,0,1,92.89,77.67Zm3.45-.81a2.67,2.67,0,0,0,1-1,3,3,0,0,0,0-2.88,2.67,2.67,0,0,0-1-1,2.92,2.92,0,0,0-1.45-.37,3,3,0,0,0-1.46.37,2.61,2.61,0,0,0-1,1,2.92,2.92,0,0,0,0,2.88,2.61,2.61,0,0,0,1,1,3,3,0,0,0,1.46.37A2.92,2.92,0,0,0,96.34,76.86Z"/><path class="cls-1" d="M103.77,77.67a3.51,3.51,0,0,1-1.39-1.34,3.94,3.94,0,0,1,0-3.84,3.51,3.51,0,0,1,1.39-1.34,4,4,0,0,1,2-.49,4.18,4.18,0,0,1,1.57.29,3.28,3.28,0,0,1,1.22.85l-.69.66a2.71,2.71,0,0,0-2.06-.87,3,3,0,0,0-1.47.37,2.66,2.66,0,0,0-1,1,3,3,0,0,0,0,2.88,2.66,2.66,0,0,0,1,1,3,3,0,0,0,1.47.37,2.74,2.74,0,0,0,2.06-.88l.69.66a3.51,3.51,0,0,1-1.22.86,4.27,4.27,0,0,1-1.58.29A4,4,0,0,1,103.77,77.67Z"/><path class="cls-1" d="M116.63,76.24h-3.9l-.8,1.83h-1.08l3.32-7.32h1l3.33,7.32h-1.1Zm-.37-.84-1.58-3.59L113.1,75.4Z"/><path class="cls-1" d="M122.81,71.66h-2.52v-.91h6.06v.91h-2.51v6.41h-1Z"/><path class="cls-1" d="M129.59,70.75h1v7.32h-1Z"/><path class="cls-1" d="M136.24,77.67a3.61,3.61,0,0,1-1.4-1.34,3.87,3.87,0,0,1,0-3.84,3.61,3.61,0,0,1,1.4-1.34,4.31,4.31,0,0,1,4,0,3.58,3.58,0,0,1,1.39,1.34,3.94,3.94,0,0,1,0,3.84,3.58,3.58,0,0,1-1.39,1.34,4.31,4.31,0,0,1-4,0Zm3.45-.81a2.58,2.58,0,0,0,1-1,2.92,2.92,0,0,0,0-2.88,2.58,2.58,0,0,0-1-1,2.92,2.92,0,0,0-1.45-.37,3,3,0,0,0-1.46.37,2.63,2.63,0,0,0-1,1,3,3,0,0,0,0,2.88,2.63,2.63,0,0,0,1,1,3,3,0,0,0,1.46.37A2.92,2.92,0,0,0,139.69,76.86Z"/><path class="cls-1" d="M152.12,70.75v7.32h-.86l-4.39-5.46v5.46h-1.05V70.75h.86l4.39,5.46V70.75Z"/><path class="cls-1" d="M157,77.9a3.38,3.38,0,0,1-1.21-.66l.39-.82a3.16,3.16,0,0,0,1.07.61,3.92,3.92,0,0,0,1.35.24,2.38,2.38,0,0,0,1.36-.31,1,1,0,0,0,.45-.82.78.78,0,0,0-.25-.61,1.65,1.65,0,0,0-.6-.37c-.24-.08-.58-.17-1-.28a9.27,9.27,0,0,1-1.34-.4,2.12,2.12,0,0,1-.87-.61,1.63,1.63,0,0,1-.36-1.11,1.86,1.86,0,0,1,.31-1.06,2.13,2.13,0,0,1,.94-.76,4,4,0,0,1,1.56-.28,4.92,4.92,0,0,1,1.27.17,3.34,3.34,0,0,1,1.08.48l-.34.84a4,4,0,0,0-1-.45,3.71,3.71,0,0,0-1-.15,2.24,2.24,0,0,0-1.34.33,1,1,0,0,0-.44.83.8.8,0,0,0,.25.62,1.72,1.72,0,0,0,.62.36,10.1,10.1,0,0,0,1,.28,10,10,0,0,1,1.33.4A2.19,2.19,0,0,1,161,75a1.58,1.58,0,0,1,.36,1.1,1.88,1.88,0,0,1-.32,1,2.09,2.09,0,0,1-.95.75,3.87,3.87,0,0,1-1.57.28A5.11,5.11,0,0,1,157,77.9Z"/><path class="cls-1" d="M0,36.63H3.6V58.7H17.24v3.13H0Z"/><path class="cls-1" d="M32.62,60.45a12.38,12.38,0,0,1-4.81-4.63,13.28,13.28,0,0,1,0-13.18A12.36,12.36,0,0,1,32.62,38a14,14,0,0,1,6.87-1.68A14,14,0,0,1,46.33,38a12.21,12.21,0,0,1,4.79,4.61,13.47,13.47,0,0,1,0,13.21,12.35,12.35,0,0,1-4.79,4.61,14.9,14.9,0,0,1-13.71,0Zm11.86-2.79A9.25,9.25,0,0,0,48,54.18a10.21,10.21,0,0,0,0-9.9,9.3,9.3,0,0,0-3.49-3.47,9.92,9.92,0,0,0-5-1.26,10.09,10.09,0,0,0-5,1.26,9.19,9.19,0,0,0-3.53,3.47,10.21,10.21,0,0,0,0,9.9,9.15,9.15,0,0,0,3.53,3.48,10.09,10.09,0,0,0,5,1.26A9.92,9.92,0,0,0,44.48,57.66Z"/><path class="cls-1" d="M70.06,60.45a12.38,12.38,0,0,1-4.81-4.63,13.28,13.28,0,0,1,0-13.18A12.36,12.36,0,0,1,70.06,38a14.83,14.83,0,0,1,13.71,0,12.21,12.21,0,0,1,4.79,4.61,13.47,13.47,0,0,1,0,13.21,12.35,12.35,0,0,1-4.79,4.61,14.9,14.9,0,0,1-13.71,0Zm11.86-2.79a9.25,9.25,0,0,0,3.49-3.48,10.21,10.21,0,0,0,0-9.9,9.3,9.3,0,0,0-3.49-3.47,9.92,9.92,0,0,0-5-1.26,10.09,10.09,0,0,0-5,1.26,9.19,9.19,0,0,0-3.53,3.47,10.21,10.21,0,0,0,0,9.9,9.15,9.15,0,0,0,3.53,3.48,10.09,10.09,0,0,0,5,1.26A9.92,9.92,0,0,0,81.92,57.66Z"/><path class="cls-1" d="M106.6,39.76v8.79h12.63v3.09H106.6V61.83H103V36.63h17.78v3.13Z"/><path class="cls-1" d="M151.42,36.63H155V58.7h13.64v3.13H151.42Z"/><path class="cls-1" d="M203.36,61.83l0-18.36-9.11,15.3h-1.66l-9.1-15.19V61.83H180V36.63H183l10.51,17.71,10.37-17.71h2.95l0,25.2Z"/><path class="cls-2" d="M153.71,13.63c-1.43,5.9-16.05,18.85-16.05,18.85s-7.09-18.2-5.66-24.1a11.17,11.17,0,0,1,21.71,5.25Z"/><ellipse class="cls-3" cx="142.97" cy="10.53" rx="5.17" ry="5.25" transform="translate(99.11 147.02) rotate(-76.4)"/><path class="cls-4" d="M133.63,9.77A9.73,9.73,0,0,1,151.9,8.2a9.73,9.73,0,0,0-18.72.37,9.42,9.42,0,0,0,.59,6.13A9.45,9.45,0,0,1,133.63,9.77Z"/><path class="cls-5" d="M136,27.86c.88,2.8,1.68,4.62,1.68,4.62s14.62-12.95,16.05-18.85q.1-.47.18-.93A26.55,26.55,0,0,1,151,17c-3.07,3.71-6.77,5.68-10.83,8.31C138.82,26.19,137.36,27.1,136,27.86Z"/><path class="cls-6" d="M137.37,47.93c0-1.2,1.18-14.37,1.47-14.78.39-.57,3.1-3.46,3.35-3.64l-.13-1.22-4.41,4.12-1.54-4.26,1.57-1.61-.58-.86-2.75.3L134,27.07l.13,1.54c.25.54,1.45,3,1.45,3l-4.72,15.24Z"/><polygon class="cls-1" points="124.79 61.86 132.31 34.92 139.82 38.97 137.77 61.86 124.79 61.86"/><polygon class="cls-6" points="142.19 29.51 142.03 27.48 139.16 25.71 137.45 28.26 138.67 31.49 139.44 32.43 142.19 29.51"/></g></g></svg>