<svg height="512pt" viewBox="0 0 512 512" width="512pt" xmlns="http://www.w3.org/2000/svg"><path d="m512 256c0 141.386719-114.613281 256-256 256s-256-114.613281-256-256 114.613281-256 256-256 256 114.613281 256 256zm0 0" fill="#fd3d96"/><path d="m473.816406 193.777344v87c0 11.046875-8.953125 20-20 20h-395.632812c-11.046875 0-20-8.953125-20-20v-106.550782l-5.375-20.066406c-2.859375-10.667968 3.472656-21.632812 14.140625-24.492187l382.152343-102.398438c10.667969-2.859375 21.636719 3.472657 24.496094 14.140625l2.585938 9.660156c2.859375 10.667969-3.472656 21.636719-14.140625 24.496094l-359.191407 96.246094c-1.128906.300781-.910156 1.964844.257813 1.964844h370.707031c11.046875 0 20 8.953125 20 20zm0 0" fill="#b4d2d7"/><path d="m473.816406 183.777344v97c0 11.046875-8.953125 20-20 20h-373.816406c-11.046875 0-20-8.953125-20-20v-87c0-11.046875 8.953125-20 20-20h383.816406c5.523438 0 10 4.476562 10 10zm-392.851562-11.460938 370.738281-99.339844c5.335937-1.425781 8.5-6.910156 7.070313-12.246093l-5.175782-19.320313c-2.859375-10.667968-13.824218-17-24.496094-14.140625l-361.078124 96.75c-10.667969 2.859375-17 13.828125-14.140626 24.496094l2.585938 9.660156c2.859375 10.667969 13.824219 17 24.496094 14.140625zm0 0" fill="#e1ebf0"/><path d="m450 223.777344h-70l-30-50h70zm-230-50 30 50h70l-30-50zm-130 0 30 50h70l-30-50zm77.875-76.511719-67.613281 18.117187-16.039063 56.058594 67.617188-18.117187zm125.570312-33.648437-67.613281 18.117187-16.039062 56.0625 67.617187-18.117187zm125.570313-33.644532-67.613281 18.117188-16.039063 56.0625 67.617188-18.117188zm0 0" fill="#9bb9c3"/><path d="m38.183594 221.332031h435.632812v169.210938c-7.921875 12.796875-16.9375 24.84375-26.921875 36.011719h-381.789062c-9.984375-11.167969-19-23.214844-26.921875-36.011719zm0 0" fill="#54469b"/><path d="m393.816406 221.332031h80v169.210938c-45.121094 72.890625-125.789062 121.457031-217.816406 121.457031-78.671875 0-149.039062-35.496094-196-91.335938v-199.332031zm0 0" fill="#6e61b5"/><path d="m330.875 364.875c0 41.351562-33.523438 74.875-74.875 74.875s-74.875-33.523438-74.875-74.875 33.523438-74.875 74.875-74.875 74.875 33.523438 74.875 74.875zm0 0" fill="#968dca"/><path d="m225.804688 402.152344v-74.554688c0-5.394531 5.972656-8.644531 10.503906-5.714844l57.664062 37.273438c4.148438 2.683594 4.148438 8.753906 0 11.433594l-57.664062 37.277344c-4.53125 2.929687-10.503906-.320313-10.503906-5.714844zm0 0" fill="#fff5f5"/></svg>