<?xml version="1.0" encoding="utf-8"?>
<!-- Generator: Adobe Illustrator 22.0.0, SVG Export Plug-In . SVG Version: 6.00 Build 0)  -->
<svg version="1.1" id="Capa_1" xmlns="http://www.w3.org/2000/svg" xmlns:xlink="http://www.w3.org/1999/xlink" x="0px" y="0px"
	 viewBox="0 0 250 100" style="enable-background:new 0 0 250 100;" xml:space="preserve">
<style type="text/css">
	.st0{fill:#1EB8D1;}
	.st1{fill:#DD2129;}
	.st2{fill:#FFFFFF;}
	.st3{fill:#E94A44;}
	.st4{fill:#CA2427;}
	.st5{fill:#F7D0B1;}
</style>
<g>
	<g>
		<path class="st0" d="M61,85.8v2.8h4v1h-4v3.3h-1.1v-8h5.7v1H61z"/>
		<path class="st0" d="M69.4,84.8h1.1v8h-1.1V84.8z"/>
		<path class="st0" d="M75.3,84.8h1.1v7h4.4v1h-5.5V84.8z"/>
		<path class="st0" d="M91.8,92.8l0-5.9l-2.9,4.9h-0.5L85.5,87v5.8h-1.1v-8h0.9l3.4,5.7l3.3-5.7h0.9l0,8H91.8z"/>
		<path class="st0" d="M103,84.8h1.1v7h4.4v1H103V84.8z"/>
		<path class="st0" d="M113.5,92.4c-0.7-0.4-1.2-0.8-1.5-1.5c-0.4-0.6-0.6-1.3-0.6-2.1c0-0.8,0.2-1.5,0.6-2.1
			c0.4-0.6,0.9-1.1,1.5-1.5c0.7-0.4,1.4-0.5,2.2-0.5c0.8,0,1.5,0.2,2.2,0.5c0.7,0.4,1.2,0.8,1.5,1.5c0.4,0.6,0.6,1.3,0.6,2.1
			c0,0.8-0.2,1.5-0.6,2.1c-0.4,0.6-0.9,1.1-1.5,1.5c-0.7,0.4-1.4,0.5-2.2,0.5C114.8,92.9,114.1,92.7,113.5,92.4z M117.2,91.5
			c0.5-0.3,0.8-0.6,1.1-1.1c0.3-0.5,0.4-1,0.4-1.6c0-0.6-0.1-1.1-0.4-1.6c-0.3-0.5-0.6-0.8-1.1-1.1c-0.5-0.3-1-0.4-1.6-0.4
			s-1.1,0.1-1.6,0.4c-0.5,0.3-0.9,0.6-1.1,1.1c-0.3,0.5-0.4,1-0.4,1.6c0,0.6,0.1,1.1,0.4,1.6c0.3,0.5,0.6,0.8,1.1,1.1
			c0.5,0.3,1,0.4,1.6,0.4S116.8,91.7,117.2,91.5z"/>
		<path class="st0" d="M125.4,92.4c-0.6-0.4-1.2-0.8-1.5-1.5c-0.4-0.6-0.6-1.3-0.6-2.1c0-0.8,0.2-1.5,0.6-2.1
			c0.4-0.6,0.9-1.1,1.5-1.5c0.7-0.4,1.4-0.5,2.2-0.5c0.6,0,1.2,0.1,1.7,0.3c0.5,0.2,1,0.5,1.3,0.9l-0.7,0.7c-0.6-0.6-1.4-1-2.3-1
			c-0.6,0-1.1,0.1-1.6,0.4c-0.5,0.3-0.9,0.6-1.1,1.1c-0.3,0.5-0.4,1-0.4,1.6c0,0.6,0.1,1.1,0.4,1.6c0.3,0.5,0.6,0.8,1.1,1.1
			c0.5,0.3,1,0.4,1.6,0.4c0.9,0,1.7-0.3,2.3-1l0.7,0.7c-0.4,0.4-0.8,0.7-1.3,0.9c-0.5,0.2-1.1,0.3-1.7,0.3
			C126.8,92.9,126,92.7,125.4,92.4z"/>
		<path class="st0" d="M139.5,90.8h-4.3l-0.9,2h-1.2l3.6-8h1.1l3.7,8h-1.2L139.5,90.8z M139.1,89.9l-1.7-3.9l-1.7,3.9H139.1z"/>
		<path class="st0" d="M146.3,85.8h-2.8v-1h6.7v1h-2.8v7h-1.1V85.8z"/>
		<path class="st0" d="M153.7,84.8h1.1v8h-1.1V84.8z"/>
		<path class="st0" d="M161,92.4c-0.7-0.4-1.2-0.8-1.5-1.5c-0.4-0.6-0.6-1.3-0.6-2.1c0-0.8,0.2-1.5,0.6-2.1c0.4-0.6,0.9-1.1,1.5-1.5
			c0.7-0.4,1.4-0.5,2.2-0.5c0.8,0,1.5,0.2,2.2,0.5c0.7,0.4,1.2,0.8,1.5,1.5c0.4,0.6,0.6,1.3,0.6,2.1c0,0.8-0.2,1.5-0.6,2.1
			c-0.4,0.6-0.9,1.1-1.5,1.5c-0.7,0.4-1.4,0.5-2.2,0.5C162.4,92.9,161.7,92.7,161,92.4z M164.8,91.5c0.5-0.3,0.8-0.6,1.1-1.1
			c0.3-0.5,0.4-1,0.4-1.6c0-0.6-0.1-1.1-0.4-1.6c-0.3-0.5-0.6-0.8-1.1-1.1c-0.5-0.3-1-0.4-1.6-0.4c-0.6,0-1.1,0.1-1.6,0.4
			c-0.5,0.3-0.9,0.6-1.1,1.1c-0.3,0.5-0.4,1-0.4,1.6c0,0.6,0.1,1.1,0.4,1.6c0.3,0.5,0.6,0.8,1.1,1.1c0.5,0.3,1,0.4,1.6,0.4
			C163.8,91.9,164.3,91.7,164.8,91.5z"/>
		<path class="st0" d="M178.5,84.8v8h-0.9l-4.8-6v6h-1.1v-8h0.9l4.8,6v-6H178.5z"/>
		<path class="st0" d="M183.8,92.6c-0.6-0.2-1-0.4-1.3-0.7l0.4-0.9c0.3,0.3,0.7,0.5,1.2,0.7c0.5,0.2,1,0.3,1.5,0.3
			c0.7,0,1.2-0.1,1.5-0.3c0.3-0.2,0.5-0.5,0.5-0.9c0-0.3-0.1-0.5-0.3-0.7c-0.2-0.2-0.4-0.3-0.7-0.4c-0.3-0.1-0.6-0.2-1.1-0.3
			c-0.6-0.1-1.1-0.3-1.5-0.4c-0.4-0.1-0.7-0.4-1-0.7c-0.3-0.3-0.4-0.7-0.4-1.2c0-0.4,0.1-0.8,0.3-1.2c0.2-0.3,0.6-0.6,1-0.8
			c0.5-0.2,1-0.3,1.7-0.3c0.5,0,0.9,0.1,1.4,0.2s0.9,0.3,1.2,0.5l-0.4,0.9c-0.3-0.2-0.7-0.4-1.1-0.5c-0.4-0.1-0.8-0.2-1.1-0.2
			c-0.7,0-1.1,0.1-1.5,0.4c-0.3,0.2-0.5,0.5-0.5,0.9c0,0.3,0.1,0.5,0.3,0.7c0.2,0.2,0.4,0.3,0.7,0.4c0.3,0.1,0.6,0.2,1.1,0.3
			c0.6,0.1,1.1,0.3,1.5,0.4c0.4,0.1,0.7,0.4,0.9,0.7c0.3,0.3,0.4,0.7,0.4,1.2c0,0.4-0.1,0.8-0.3,1.2c-0.2,0.3-0.6,0.6-1,0.8
			c-0.5,0.2-1,0.3-1.7,0.3C184.9,92.9,184.3,92.8,183.8,92.6z"/>
	</g>
	<g>
		<g>
			<path class="st0" d="M11.5,47.3h4v24.2h15V75H11.5V47.3z"/>
			<path class="st0" d="M47.3,73.5c-2.2-1.2-4-2.9-5.3-5.1c-1.3-2.2-1.9-4.6-1.9-7.2c0-2.7,0.6-5.1,1.9-7.2c1.3-2.2,3-3.9,5.3-5.1
				c2.2-1.2,4.8-1.8,7.5-1.8c2.8,0,5.3,0.6,7.5,1.8c2.2,1.2,4,2.9,5.3,5.1c1.3,2.1,1.9,4.6,1.9,7.3c0,2.7-0.6,5.1-1.9,7.3
				c-1.3,2.1-3,3.8-5.3,5.1c-2.2,1.2-4.7,1.8-7.5,1.8C52.1,75.3,49.5,74.7,47.3,73.5z M60.3,70.4c1.6-0.9,2.9-2.2,3.8-3.8
				c0.9-1.6,1.4-3.4,1.4-5.4c0-2-0.5-3.8-1.4-5.4c-0.9-1.6-2.2-2.9-3.8-3.8c-1.6-0.9-3.4-1.4-5.5-1.4c-2,0-3.9,0.5-5.5,1.4
				c-1.6,0.9-2.9,2.2-3.9,3.8c-0.9,1.6-1.4,3.4-1.4,5.4c0,2,0.5,3.8,1.4,5.4c0.9,1.6,2.2,2.9,3.9,3.8c1.6,0.9,3.5,1.4,5.5,1.4
				C56.9,71.8,58.7,71.3,60.3,70.4z"/>
			<path class="st0" d="M88.4,73.5c-2.2-1.2-4-2.9-5.3-5.1c-1.3-2.2-1.9-4.6-1.9-7.2c0-2.7,0.6-5.1,1.9-7.2c1.3-2.2,3-3.9,5.3-5.1
				c2.2-1.2,4.8-1.8,7.5-1.8c2.8,0,5.3,0.6,7.5,1.8c2.2,1.2,4,2.9,5.3,5.1c1.3,2.1,1.9,4.6,1.9,7.3c0,2.7-0.6,5.1-1.9,7.3
				c-1.3,2.1-3,3.8-5.3,5.1c-2.2,1.2-4.7,1.8-7.5,1.8C93.1,75.3,90.6,74.7,88.4,73.5z M101.4,70.4c1.6-0.9,2.9-2.2,3.8-3.8
				c0.9-1.6,1.4-3.4,1.4-5.4c0-2-0.5-3.8-1.4-5.4c-0.9-1.6-2.2-2.9-3.8-3.8c-1.6-0.9-3.4-1.4-5.5-1.4c-2,0-3.9,0.5-5.5,1.4
				c-1.6,0.9-2.9,2.2-3.9,3.8c-0.9,1.6-1.4,3.4-1.4,5.4c0,2,0.5,3.8,1.4,5.4c0.9,1.6,2.2,2.9,3.9,3.8c1.6,0.9,3.5,1.4,5.5,1.4
				C98,71.8,99.8,71.3,101.4,70.4z"/>
			<path class="st0" d="M128.5,50.8v9.6h13.9v3.4h-13.9V75h-4V47.3h19.5v3.4H128.5z"/>
			<path class="st0" d="M177.7,47.3h4v24.2h15V75h-18.9V47.3z"/>
			<path class="st0" d="M234.7,75l0-20.2l-10,16.8h-1.8l-10-16.7v20h-3.8V47.3h3.2l11.5,19.4l11.4-19.4h3.2l0,27.7H234.7z"/>
		</g>
		<g>
			<g>
				<g>
					<g>
						<g>
							<path class="st1" d="M180.2,22.1c-1.6,6.5-17.6,20.7-17.6,20.7s-7.8-20-6.2-26.4s8.2-10.4,14.7-8.8
								C177.7,9.1,181.8,15.6,180.2,22.1z"/>
						</g>
						<g>
							
								<ellipse transform="matrix(0.2351 -0.972 0.972 0.2351 110.6736 177.9774)" class="st2" cx="168.4" cy="18.7" rx="5.7" ry="5.8"/>
						</g>
					</g>
					<g>
						<path class="st3" d="M158.2,17.8c1.4-5.6,7.1-9.1,12.8-7.7c3.3,0.8,5.9,3.1,7.2,6c-1-3.5-3.9-6.4-7.7-7.3
							c-5.7-1.4-11.5,2.1-12.8,7.7c-0.6,2.3-0.3,4.7,0.6,6.7C157.8,21.5,157.7,19.7,158.2,17.8z"/>
					</g>
					<g>
						<path class="st4" d="M160.7,37.7c1,3.1,1.8,5.1,1.8,5.1s16-14.2,17.6-20.7c0.1-0.3,0.1-0.7,0.2-1c-0.9,1.7-2,3.3-3.2,4.8
							c-3.4,4.1-7.4,6.2-11.9,9.1C163.9,35.9,162.3,36.9,160.7,37.7z"/>
					</g>
				</g>
			</g>
			<g>
				<g>
					<path class="st5" d="M162.3,59.7c0.1-1.3,1.3-15.8,1.6-16.2c0.4-0.6,3.4-3.8,3.7-4l-0.1-1.3l-4.8,4.5l-1.7-4.7l1.7-1.8
						l-0.6-0.9l-3,0.3l-0.4,1.2c0,0,0.1,1.7,0.1,1.7c0.3,0.6,1.6,3.3,1.6,3.3l-5.2,16.7C155.1,58.6,162.3,59.7,162.3,59.7z"/>
				</g>
			</g>
			<g>
				<g>
					<polygon class="st0" points="148.5,75 156.7,45.4 165,49.9 162.7,75 					"/>
				</g>
			</g>
			<g>
				<polygon class="st5" points="167.6,39.5 167.4,37.3 164.2,35.3 162.4,38.1 163.7,41.7 164.5,42.7 				"/>
			</g>
		</g>
	</g>
</g>
</svg>
