<?xml version="1.0" encoding="utf-8"?>
<!-- Generator: Adobe Illustrator 22.0.0, SVG Export Plug-In . SVG Version: 6.00 Build 0)  -->
<svg version="1.1" id="Capa_1" xmlns="http://www.w3.org/2000/svg" xmlns:xlink="http://www.w3.org/1999/xlink" x="0px" y="0px"
	 viewBox="0 0 512 512" style="enable-background:new 0 0 512 512;" xml:space="preserve">
<style type="text/css">
	.st0{fill:#FFFFFF;}
	.st1{fill:#1EB8D1;}
	.st2{fill:#DD2129;}
	.st3{fill:#E94A44;}
	.st4{fill:#CA2427;}
	.st5{fill:#F7D0B1;}
</style>
<g>
	<path class="st0" d="M447.6,187c-10.6-25-25.7-47.5-45-66.8s-41.8-34.4-66.8-45c-25.9-10.9-53.4-16.5-81.7-16.5
		s-55.9,5.5-81.7,16.5c-25,10.6-47.5,25.7-66.8,45S71.2,162,60.6,187c-10.9,25.9-16.5,53.4-16.5,81.7s5.5,55.9,16.5,81.7
		c10.6,25,25.7,47.5,45,66.8c19.3,19.3,41.8,34.4,66.8,45c25.9,10.9,53.4,16.5,81.7,16.5s55.9-5.5,81.7-16.5
		c25-10.6,47.5-25.7,66.8-45c19.3-19.3,34.4-41.8,45-66.8c10.9-25.9,16.5-53.4,16.5-81.7S458.6,212.9,447.6,187z"/>
	<path class="st1" d="M254.1,28.7c-132.6,0-240,107.5-240,240s107.4,240,240,240s240-107.5,240-240S386.7,28.7,254.1,28.7z
		 M402.6,417.2c-19.3,19.3-41.8,34.4-66.8,45c-25.9,10.9-53.4,16.5-81.7,16.5s-55.9-5.5-81.7-16.5c-25-10.6-47.5-25.7-66.8-45
		c-19.3-19.3-34.4-41.8-45-66.8c-10.9-25.9-16.5-53.4-16.5-81.7s5.5-55.9,16.5-81.7c10.6-25,25.7-47.5,45-66.8s41.8-34.4,66.8-45
		c25.9-10.9,53.4-16.5,81.7-16.5s55.9,5.5,81.7,16.5c25,10.6,47.5,25.7,66.8,45s34.4,41.8,45,66.8c10.9,25.9,16.5,53.4,16.5,81.7
		s-5.5,55.9-16.5,81.7C437.1,375.5,421.9,397.9,402.6,417.2z"/>
</g>
<g>
	<g>
		<g>
			<g>
				<g>
					<path class="st2" d="M415.1,166c-14.7,70.8-184.1,231-184.1,231s-91.5-214.3-76.8-285.1C168.8,41,239.2-4.4,311.2,10.4
						C383.3,25.6,429.7,95.2,415.1,166z"/>
				</g>
				<g>
					
						<ellipse transform="matrix(0.2035 -0.9791 0.9791 0.2035 97.1436 385.8905)" class="st0" cx="285.8" cy="133.2" rx="61.6" ry="62.6"/>
				</g>
			</g>
			<g>
				<path class="st3" d="M174.1,127.6c12.7-61.5,73.8-100.9,136.6-88c36.7,7.5,65.6,31.6,80.8,62.2c-12.7-37.5-44.6-67.7-86.5-76.3
					c-62.5-12.9-123.6,26.5-136.6,88c-5.4,25.6-1.3,50.9,9.3,72.8C171.4,168.1,170,148,174.1,127.6z"/>
			</g>
			<g>
				<path class="st4" d="M209,342.5c11.8,33,22,54.4,22,54.4s169.4-159.9,184.1-231c0.9-3.8,1.3-7.5,1.9-11
					c-9.1,18.5-20.5,36.3-33.2,52.7c-35.2,45.5-78.5,70.4-125.9,103.4C242.5,321.5,225.4,333,209,342.5z"/>
			</g>
		</g>
	</g>
	<g>
		<g>
			<path class="st5" d="M238.1,496.6c0.3-14.5,3.7-87,7.1-92.1c4.5-6.9,35.8-42.6,38.5-44.6l-2-14.4l-51,50.8L210.6,346l18.1-19.8
				l-7.3-10l-32.5,4.5l-4.1,13.1l2.1,18.4c3.2,6.4,18.6,35.6,18.6,35.6l-27,98C178.4,485.8,238.1,496.6,238.1,496.6z"/>
		</g>
	</g>
	<g>
		<g>
			<polygon class="st1" points="170.4,483.5 183.3,417 250.9,448.8 252.8,506.2 			"/>
		</g>
	</g>
	<g>
		<polygon class="st5" points="283.9,359.8 281.1,335.7 246.3,315.6 226.8,346.7 242.5,384.8 252.1,395.8 		"/>
	</g>
</g>
</svg>
